<?xml version="1.0" encoding="UTF-8"?>
<svg id="Layer_1" xmlns="http://www.w3.org/2000/svg" version="1.1" viewBox="0 0 595.28 841.89">
  <!-- Generator: Adobe Illustrator 29.7.1, SVG Export Plug-In . SVG Version: 2.1.1 Build 8)  -->
  <defs>
    <style>
      .st0 {
        opacity: .7;
      }

      .st0, .st1 {
        fill: #573e98;
      }

      .st2 {
        stroke-width: 2px;
      }

      .st2, .st3, .st4 {
        fill: none;
        stroke-miterlimit: 10;
      }

      .st2, .st4 {
        stroke: #662d91;
      }

      .st5 {
        opacity: .55;
      }

      .st5, .st6 {
        fill: #2d67b1;
      }

      .st3 {
        stroke: #1c75bc;
      }
    </style>
  </defs>
  <g>
    <polygon class="st6" points="281.25 245.26 281.65 236.25 274.51 230.75 283.14 228.42 286.07 219.92 291.01 227.49 299.96 227.74 294.38 234.75 296.98 243.4 288.6 240.16 281.25 245.26"/>
    <polygon class="st1" points="281.25 272.91 281.65 263.9 274.51 258.4 283.14 256.07 286.07 247.58 291.01 255.15 299.96 255.39 294.38 262.4 296.98 271.05 288.6 267.81 281.25 272.91"/>
    <polygon class="st1" points="261.43 251.12 262.09 245.24 257.18 241.96 263.49 240.09 265.95 234.45 269.19 239.16 275.62 238.96 271.31 243.74 272.83 249.26 266.93 247.5 261.43 251.12"/>
    <polygon class="st6" points="307.82 249.33 308.48 243.46 303.57 240.18 309.88 238.31 312.34 232.66 315.58 237.38 322.01 237.17 317.7 241.96 319.22 247.48 313.32 245.71 307.82 249.33"/>
    <polygon class="st6" points="326.56 253.79 327.22 247.92 322.3 244.64 328.61 242.77 331.07 237.12 334.31 241.84 340.74 241.63 336.44 246.42 337.95 251.94 332.05 250.18 326.56 253.79"/>
    <polygon class="st6" points="345.29 266.28 345.95 260.41 341.03 257.13 347.34 255.26 349.8 249.61 353.04 254.33 359.48 254.12 355.17 258.91 356.69 264.43 350.79 262.66 345.29 266.28"/>
    <polygon class="st6" points="318.99 276.54 319.4 272.86 316.32 270.8 320.28 269.63 321.82 266.09 323.85 269.05 327.89 268.92 325.19 271.92 326.14 275.38 322.44 274.28 318.99 276.54"/>
    <polygon class="st1" points="264.57 271.19 264.99 267.51 261.9 265.45 265.86 264.28 267.4 260.73 269.44 263.69 273.47 263.56 270.77 266.57 271.72 270.03 268.02 268.92 264.57 271.19"/>
    <polygon class="st1" points="249.41 280.11 249.82 276.43 246.74 274.37 250.7 273.2 252.24 269.65 254.27 272.61 258.31 272.48 255.61 275.49 256.56 278.95 252.86 277.84 249.41 280.11"/>
    <polygon class="st6" points="304.72 271.19 305.13 267.51 302.05 265.45 306.01 264.28 307.55 260.73 309.58 263.69 313.62 263.56 310.92 266.57 311.87 270.03 308.16 268.92 304.72 271.19"/>
    <polygon class="st1" points="241.81 261.82 242.47 255.95 237.55 252.67 243.86 250.8 246.32 245.15 249.56 249.87 256 249.66 251.69 254.45 253.21 259.96 247.3 258.2 241.81 261.82"/>
    <polygon class="st1" points="223.07 269.85 223.73 263.98 218.82 260.69 225.13 258.83 227.59 253.18 230.83 257.9 237.26 257.69 232.95 262.48 234.47 267.99 228.57 266.23 223.07 269.85"/>
    <rect class="st3" x="348.48" y="269.58" width="2.53" height="23.62"/>
    <polygon class="st6" points="351.57 294.3 347.64 294.3 345.11 305 354.37 305 351.57 294.3"/>
    <ellipse class="st2" cx="288.22" cy="294.44" rx="22.31" ry="19.36"/>
    <ellipse class="st6" cx="349.74" cy="293.57" rx="3.79" ry="2.1"/>
    <path class="st0" d="M336.23,459.99l130.33,139.74s-.02.12-.07.07c-41.61-32.73-90.84-85.3-139.15-133.2l8.89-6.61Z"/>
    <polygon class="st1" points="315.52 475.07 467.78 601.04 290.19 493.61 315.52 475.07"/>
    <polyline class="st3" points="335.93 358.86 289.44 314.4 280.35 323.5 327.84 367.96 335.14 383.62"/>
    <path class="st4" d="M300.6,324.2"/>
    <polyline class="st4" points="297.88 322.47 252.97 367.86 244.98 358.86 289.44 314.4"/>
    <polygon class="st1" points="327.14 465.47 303.39 484.16 463.37 597.36 327.14 465.47"/>
    <polygon class="st0" points="157.26 384.13 127.57 358.36 245.32 358.36 253.37 368.23 246.33 383.58 157.26 384.13"/>
    <polyline class="st1" points="284.33 423.17 246.34 381.79 127.22 383.99 250.02 466.6"/>
    <polygon class="st0" points="291.32 414.32 252.87 367.96 246.8 382.11 284.19 423.53 291.32 414.32"/>
    <polygon class="st5" points="335.5 358.41 439.28 358.41 145.9 598.37 335.5 358.41"/>
    <path class="st6" d="M335.14,383.99h103.77c-6.12,4.53-72.54,53.7-145.07,107.43-76.93,56.99-146.95,108.9-153.83,114.01,65.04-73.81,130.08-147.62,195.13-221.43Z"/>
  </g>
  <g>
    <g>
      <path class="st1" d="M147.51,620.73v-13.87h9.07v2.3h-6.2v3.29h5.17v2.3h-5.17v5.98h-2.87Z"/>
      <path class="st1" d="M164,619.59c-.73.93-1.73,1.4-3,1.4s-2.15-.32-2.68-.97c-.54-.65-.8-1.74-.8-3.27v-5.96h2.71v5.24c0,.99.13,1.69.4,2.09.26.4.72.6,1.36.6.28,0,.59-.07.94-.22.35-.15.56-.3.63-.46v-7.25h2.76v9.94h-2.06l-.24-1.14h-.02Z"/>
      <path class="st1" d="M175.09,613h-2.85v4.93c0,.73.24,1.1.72,1.1.44,0,.99-.19,1.64-.57l.92,1.4c-1.04.82-2.18,1.23-3.44,1.23-1.75,0-2.63-.96-2.63-2.89v-5.19h-1.38v-2.21h1.4v-1.77c.73-.4,1.66-.88,2.78-1.47v3.24h2.83v2.21Z"/>
      <path class="st1" d="M183.61,619.59c-.73.93-1.73,1.4-3,1.4s-2.15-.32-2.68-.97c-.54-.65-.8-1.74-.8-3.27v-5.96h2.71v5.24c0,.99.13,1.69.4,2.09.26.4.72.6,1.36.6.28,0,.59-.07.94-.22.35-.15.56-.3.63-.46v-7.25h2.76v9.94h-2.06l-.24-1.14h-.02Z"/>
      <path class="st1" d="M190.81,610.78l.26.88c.15-.31.43-.57.84-.8.42-.23.84-.34,1.28-.34,1.31,0,2.29.62,2.93,1.86l-2.32,1.27c-.48-.55-.99-.83-1.53-.83-.49,0-.86.26-1.1.77v7.14h-2.71v-9.94h2.34Z"/>
      <path class="st1" d="M205.82,616.65h-6.83c.06.67.33,1.23.82,1.67s1.07.67,1.74.67c.95,0,1.94-.29,2.98-.88l.7,1.47c-1.05.93-2.36,1.4-3.94,1.4-1.69,0-3.02-.48-3.96-1.44-.91-.91-1.36-2.15-1.36-3.75s.51-2.85,1.53-3.88c.92-.93,2.09-1.4,3.5-1.4,1.58,0,2.8.53,3.68,1.6.76.91,1.14,2.08,1.14,3.53v1.01ZM198.83,614.62h4.23c-.07-1.43-.77-2.15-2.08-2.15s-1.99.72-2.14,2.15Z"/>
      <path class="st1" d="M212.78,620.71v-13.82c1.11-.19,2.45-.28,4.03-.28,1.83,0,3.18.43,4.08,1.29.7.69,1.05,1.59,1.05,2.72,0,.69-.28,1.31-.85,1.87s-1.2.84-1.9.84v.02c.96.1,1.72.47,2.29,1.12.56.64.84,1.45.84,2.43,0,1.37-.58,2.42-1.73,3.16-1.01.63-2.35.94-4.03.94-1.46,0-2.72-.09-3.77-.28ZM215.65,609.05v3.2h1.62c1.23,0,1.84-.52,1.84-1.56,0-1.15-.74-1.75-2.23-1.77h-.07c-.36,0-.75.04-1.16.13ZM215.65,614.55v4.01c.36.12.88.17,1.56.17,1.42,0,2.13-.62,2.13-1.86,0-1.55-.73-2.32-2.19-2.32h-1.49Z"/>
      <path class="st1" d="M232.25,620.73h-2.21l-.22-.94c-.96.8-1.94,1.2-2.94,1.2-2.2,0-3.31-1.07-3.31-3.22,0-1.07.46-1.9,1.38-2.5.93-.61,2.32-.92,4.14-.92h.46v-.04c0-.63-.13-1.06-.4-1.29-.26-.23-.74-.35-1.42-.35-.96,0-1.85.3-2.65.92-.26-.48-.51-.96-.74-1.42.83-.64,1.56-1.08,2.18-1.3.62-.23,1.36-.34,2.22-.34,2.33,0,3.5,1.46,3.5,4.38v5.82ZM229.47,616.04h-.33c-.83,0-1.5.15-2.01.44-.51.29-.77.68-.77,1.16,0,.91.4,1.36,1.19,1.36.48,0,.9-.14,1.27-.42.36-.28.58-.63.66-1.05v-1.49Z"/>
      <path class="st1" d="M240.6,613.19c-.72-.47-1.53-.7-2.45-.7-.7,0-1.05.3-1.05.9,0,.55.47.95,1.42,1.18,1.18.29,1.99.62,2.41.99.61.53.92,1.31.92,2.36,0,.93-.33,1.68-1,2.23-.67.55-1.56.83-2.68.83-1.59,0-2.94-.45-4.03-1.36l1.01-1.53c.76.6,1.67.9,2.74.9.42,0,.77-.1,1.03-.31.26-.2.4-.47.4-.81,0-.61-.52-1.01-1.56-1.2-2.22-.42-3.33-1.51-3.33-3.24,0-.83.34-1.52,1.02-2.08.68-.55,1.53-.83,2.55-.83,1.39,0,2.59.4,3.62,1.2l-1.01,1.47Z"/>
      <path class="st1" d="M252.71,616.65h-6.83c.06.67.33,1.23.82,1.67s1.07.67,1.74.67c.95,0,1.94-.29,2.98-.88l.7,1.47c-1.05.93-2.36,1.4-3.94,1.4-1.69,0-3.02-.48-3.96-1.44-.91-.91-1.36-2.15-1.36-3.75s.51-2.85,1.53-3.88c.92-.93,2.09-1.4,3.5-1.4,1.58,0,2.8.53,3.68,1.6.76.91,1.14,2.08,1.14,3.53v1.01ZM245.72,614.62h4.23c-.07-1.43-.77-2.15-2.08-2.15s-1.99.72-2.14,2.15Z"/>
      <path class="st1" d="M260.4,613.19c-.72-.47-1.53-.7-2.45-.7-.7,0-1.05.3-1.05.9,0,.55.47.95,1.42,1.18,1.18.29,1.99.62,2.41.99.61.53.92,1.31.92,2.36,0,.93-.33,1.68-1,2.23-.67.55-1.56.83-2.68.83-1.59,0-2.94-.45-4.03-1.36l1.01-1.53c.76.6,1.67.9,2.74.9.42,0,.77-.1,1.03-.31.26-.2.4-.47.4-.81,0-.61-.52-1.01-1.56-1.2-2.22-.42-3.33-1.51-3.33-3.24,0-.83.34-1.52,1.02-2.08.68-.55,1.53-.83,2.55-.83,1.39,0,2.59.4,3.62,1.2l-1.01,1.47Z"/>
      <path class="st1" d="M271.44,606.86v13.87h-2.83v-13.87h2.83Z"/>
      <path class="st1" d="M276.91,611.75c.29-.34.73-.63,1.32-.87.58-.24,1.14-.36,1.66-.36,1.25,0,2.16.34,2.73,1.03.56.68.84,1.8.84,3.33v5.85h-2.78v-5.74c0-1.43-.63-2.15-1.9-2.15-.32,0-.67.07-1.03.21-.36.14-.61.3-.74.47v7.21h-2.76v-9.94h2.34c.07.38.15.7.22.96h.11Z"/>
      <path class="st1" d="M291.9,613h-2.85v4.93c0,.73.24,1.1.72,1.1.44,0,.99-.19,1.64-.57l.92,1.4c-1.04.82-2.18,1.23-3.44,1.23-1.75,0-2.63-.96-2.63-2.89v-5.19h-1.38v-2.21h1.4v-1.77c.73-.4,1.66-.88,2.78-1.47v3.24h2.83v2.21Z"/>
      <path class="st1" d="M302.91,616.65h-6.83c.06.67.33,1.23.82,1.67s1.07.67,1.74.67c.95,0,1.94-.29,2.98-.88l.7,1.47c-1.05.93-2.36,1.4-3.94,1.4-1.69,0-3.02-.48-3.96-1.44-.91-.91-1.36-2.15-1.36-3.75s.51-2.85,1.53-3.88c.92-.93,2.09-1.4,3.5-1.4,1.58,0,2.8.53,3.68,1.6.76.91,1.14,2.08,1.14,3.53v1.01ZM295.93,614.62h4.23c-.07-1.43-.77-2.15-2.08-2.15s-1.99.72-2.14,2.15Z"/>
      <path class="st1" d="M307.14,610.78l.26.88c.15-.31.43-.57.84-.8.42-.23.84-.34,1.28-.34,1.31,0,2.29.62,2.93,1.86l-2.32,1.27c-.48-.55-.99-.83-1.53-.83-.49,0-.86.26-1.1.77v7.14h-2.71v-9.94h2.34Z"/>
      <path class="st1" d="M315.94,611.75c.29-.34.73-.63,1.32-.87.58-.24,1.14-.36,1.66-.36,1.25,0,2.16.34,2.73,1.03.56.68.84,1.8.84,3.33v5.85h-2.78v-5.74c0-1.43-.63-2.15-1.9-2.15-.32,0-.67.07-1.03.21-.36.14-.61.3-.74.47v7.21h-2.76v-9.94h2.34c.07.38.15.7.22.96h.11Z"/>
      <path class="st1" d="M332.94,620.73h-2.21l-.22-.94c-.96.8-1.94,1.2-2.94,1.2-2.2,0-3.31-1.07-3.31-3.22,0-1.07.46-1.9,1.38-2.5.93-.61,2.32-.92,4.14-.92h.46v-.04c0-.63-.13-1.06-.4-1.29-.26-.23-.74-.35-1.42-.35-.96,0-1.85.3-2.65.92-.26-.48-.51-.96-.74-1.42.83-.64,1.56-1.08,2.18-1.3.62-.23,1.36-.34,2.22-.34,2.33,0,3.5,1.46,3.5,4.38v5.82ZM330.16,616.04h-.33c-.83,0-1.5.15-2.01.44-.51.29-.77.68-.77,1.16,0,.91.4,1.36,1.19,1.36.48,0,.9-.14,1.27-.42.36-.28.58-.63.66-1.05v-1.49Z"/>
      <path class="st1" d="M341.7,613h-2.85v4.93c0,.73.24,1.1.72,1.1.44,0,.99-.19,1.64-.57l.92,1.4c-1.04.82-2.18,1.23-3.44,1.23-1.75,0-2.63-.96-2.63-2.89v-5.19h-1.38v-2.21h1.4v-1.77c.73-.4,1.66-.88,2.78-1.47v3.24h2.83v2.21Z"/>
      <path class="st1" d="M343.3,608.24c0-.47.16-.87.49-1.22.33-.34.72-.51,1.17-.51.48,0,.89.17,1.24.5.34.34.51.74.51,1.23,0,.51-.16.93-.49,1.25-.33.32-.75.48-1.26.48-.48,0-.88-.16-1.19-.49-.31-.33-.47-.74-.47-1.24ZM346.41,610.78v9.94h-2.78v-9.94h2.78Z"/>
      <path class="st1" d="M353.11,610.52c1.64,0,2.91.58,3.81,1.73.76.96,1.14,2.14,1.14,3.53,0,1.62-.56,2.93-1.69,3.94-.93.85-2.02,1.27-3.26,1.27-1.44,0-2.66-.54-3.63-1.62-.88-.98-1.32-2.18-1.32-3.59,0-1.61.49-2.91,1.47-3.9.89-.91,2.05-1.36,3.48-1.36ZM353.11,618.93c1.42,0,2.13-1.05,2.13-3.16s-.71-3.29-2.13-3.29-2.12,1.1-2.12,3.29.71,3.16,2.12,3.16Z"/>
      <path class="st1" d="M362.62,611.75c.29-.34.73-.63,1.32-.87.58-.24,1.14-.36,1.66-.36,1.25,0,2.16.34,2.73,1.03.56.68.84,1.8.84,3.33v5.85h-2.78v-5.74c0-1.43-.63-2.15-1.9-2.15-.32,0-.67.07-1.03.21-.36.14-.61.3-.74.47v7.21h-2.76v-9.94h2.34c.07.38.15.7.22.96h.11Z"/>
      <path class="st1" d="M379.61,620.73h-2.21l-.22-.94c-.96.8-1.94,1.2-2.94,1.2-2.2,0-3.31-1.07-3.31-3.22,0-1.07.46-1.9,1.38-2.5.93-.61,2.32-.92,4.14-.92h.46v-.04c0-.63-.13-1.06-.4-1.29-.26-.23-.74-.35-1.42-.35-.96,0-1.85.3-2.65.92-.26-.48-.51-.96-.74-1.42.83-.64,1.56-1.08,2.18-1.3.62-.23,1.36-.34,2.22-.34,2.33,0,3.5,1.46,3.5,4.38v5.82ZM376.83,616.04h-.33c-.83,0-1.5.15-2.01.44-.51.29-.77.68-.77,1.16,0,.91.4,1.36,1.19,1.36.48,0,.9-.14,1.27-.42.36-.28.58-.63.66-1.05v-1.49Z"/>
      <path class="st1" d="M384.92,606.6v14.13h-2.76v-12.68l2.76-1.44Z"/>
      <path class="st1" d="M401.12,608c-.26.4-.67.99-1.23,1.77-1.17-.51-2.21-.77-3.13-.77-1.21,0-1.82.45-1.82,1.36,0,.41.14.73.42.96s.86.52,1.73.86c1.58.61,2.71,1.28,3.41,1.99s1.04,1.58,1.04,2.59c0,1.42-.53,2.51-1.6,3.29-.87.63-1.96.94-3.26.94-1.53,0-3.17-.55-4.91-1.66l1.27-1.78c.85.57,1.94.86,3.26.86,1.5,0,2.26-.61,2.26-1.82,0-.79-.81-1.46-2.43-2.02-2.62-.88-3.92-2.28-3.92-4.2,0-1.17.44-2.1,1.31-2.78.82-.66,1.9-.99,3.26-.99,1.55,0,2.99.47,4.33,1.4Z"/>
      <path class="st1" d="M411.92,619.46c-1.04,1.02-2.27,1.53-3.68,1.53-1.69,0-3.04-.54-4.03-1.62-.86-.95-1.29-2.14-1.29-3.57,0-1.61.56-2.92,1.66-3.94.96-.89,2.14-1.33,3.53-1.33,1.53,0,2.77.48,3.7,1.44l-.83,1.49c-.74-.66-1.56-.99-2.43-.99-.82,0-1.49.32-2.02.95-.53.64-.79,1.45-.79,2.44,0,.92.26,1.68.77,2.27.52.59,1.18.89,1.98.89.96,0,1.79-.36,2.48-1.07l.94,1.51Z"/>
      <path class="st1" d="M413.59,608.11l2.76-1.51v5.36c.23-.45.71-.84,1.44-1.16.48-.2.93-.3,1.36-.3,1.27,0,2.19.35,2.77,1.04s.87,1.81.87,3.34v5.85h-2.76v-5.74c0-1.43-.61-2.15-1.84-2.15-.89,0-1.51.25-1.84.74v7.14h-2.76v-12.61Z"/>
      <path class="st1" d="M429.51,610.52c1.64,0,2.91.58,3.81,1.73.76.96,1.14,2.14,1.14,3.53,0,1.62-.56,2.93-1.69,3.94-.93.85-2.02,1.27-3.26,1.27-1.44,0-2.66-.54-3.63-1.62-.88-.98-1.32-2.18-1.32-3.59,0-1.61.49-2.91,1.47-3.9.89-.91,2.05-1.36,3.48-1.36ZM429.51,618.93c1.42,0,2.13-1.05,2.13-3.16s-.71-3.29-2.13-3.29-2.12,1.1-2.12,3.29.71,3.16,2.12,3.16Z"/>
      <path class="st1" d="M440.63,610.52c1.64,0,2.91.58,3.81,1.73.76.96,1.14,2.14,1.14,3.53,0,1.62-.56,2.93-1.69,3.94-.93.85-2.02,1.27-3.26,1.27-1.44,0-2.66-.54-3.63-1.62-.88-.98-1.32-2.18-1.32-3.59,0-1.61.49-2.91,1.47-3.9.89-.91,2.05-1.36,3.48-1.36ZM440.63,618.93c1.42,0,2.13-1.05,2.13-3.16s-.71-3.29-2.13-3.29-2.12,1.1-2.12,3.29.71,3.16,2.12,3.16Z"/>
      <path class="st1" d="M450.23,606.6v14.13h-2.76v-12.68l2.76-1.44Z"/>
      <path class="st1" d="M458.57,613.19c-.72-.47-1.53-.7-2.45-.7-.7,0-1.05.3-1.05.9,0,.55.47.95,1.42,1.18,1.18.29,1.99.62,2.41.99.61.53.92,1.31.92,2.36,0,.93-.33,1.68-1,2.23-.67.55-1.56.83-2.68.83-1.59,0-2.94-.45-4.03-1.36l1.01-1.53c.76.6,1.67.9,2.74.9.42,0,.77-.1,1.03-.31.26-.2.4-.47.4-.81,0-.61-.52-1.01-1.56-1.2-2.22-.42-3.33-1.51-3.33-3.24,0-.83.34-1.52,1.02-2.08.68-.55,1.53-.83,2.55-.83,1.39,0,2.59.4,3.62,1.2l-1.01,1.47Z"/>
    </g>
    <g>
      <path class="st6" d="M182.56,593.97c-.91,0-1.55-.17-1.94-.52-.39-.34-.58-.79-.58-1.32,0-.4.1-.86.3-1.36l1.38-3.51c.18-.47.49-.86.92-1.16.43-.3.9-.45,1.42-.45h3.77c.13,0,.25.05.35.15.1.1.15.22.15.35v5.55h1.64v2.27h-7.42ZM182.83,581.94c.27-.22.6-.33.98-.33s.71.11.98.33c.27.22.4.49.4.81s-.13.59-.4.81c-.27.22-.59.33-.98.33s-.71-.11-.98-.33-.4-.49-.4-.81.13-.59.4-.81ZM186.08,587.92h-2.16l-1.48,3.79h3.65v-3.79ZM186.11,581.94c.27-.22.6-.33.98-.33s.71.11.98.33.4.49.4.81-.13.59-.4.81-.6.33-.98.33-.71-.11-.98-.33-.4-.49-.4-.81.13-.59.4-.81Z"/>
      <path class="st6" d="M189.44,591.92c.14-.14.32-.21.54-.21h2.64v-5.55c0-.13.05-.25.15-.35.1-.1.22-.15.35-.15h1.26c.13,0,.25.05.35.15.1.1.15.22.15.35v5.55h2.64v2.27h-7.55c-.22,0-.4-.07-.54-.21-.14-.14-.21-.32-.21-.54v-.76c0-.22.07-.4.21-.54ZM190.38,595.82c.27-.22.6-.33.98-.33s.71.11.98.33.4.49.4.81-.13.59-.4.81-.6.33-.98.33-.71-.11-.98-.33-.4-.49-.4-.81.13-.59.4-.81ZM193.65,595.82c.27-.22.6-.33.98-.33s.71.11.98.33c.27.22.4.49.4.81s-.13.59-.4.81c-.27.22-.59.33-.98.33s-.71-.11-.98-.33-.4-.49-.4-.81.13-.59.4-.81Z"/>
      <path class="st6" d="M196.98,591.92c.14-.14.32-.21.54-.21h1.64v-1.82c0-.64.11-1.2.33-1.68.22-.48.51-.88.87-1.19.36-.31.78-.55,1.25-.71.47-.16.96-.24,1.46-.24s.99.08,1.45.23.88.38,1.25.69c.37.31.66.7.88,1.17.22.47.33,1.02.33,1.64v1.89h1.64v2.27h-2.59c-.37.4-.82.71-1.35.93-.53.22-1.07.33-1.62.33s-1.09-.1-1.6-.32c-.51-.21-.95-.53-1.32-.95h-2.59c-.22,0-.4-.07-.54-.21-.14-.14-.21-.32-.21-.54v-.76c0-.22.07-.4.21-.54ZM201.94,592.71c.34.17.72.25,1.12.25s.8-.08,1.13-.25c.33-.17.5-.42.5-.76v-2.27c0-.45-.17-.79-.5-1.01-.34-.22-.71-.33-1.13-.33s-.78.11-1.12.33-.52.56-.52,1.01v2.27c0,.34.17.59.52.76Z"/>
      <path class="st6" d="M210.23,580.6c0-.13.05-.25.15-.35.1-.1.22-.15.35-.15h1.26c.13,0,.25.05.35.15.1.1.15.22.15.35v11.36c0,.55-.2,1.03-.59,1.43-.39.4-.87.59-1.42.59h-1.89c-.22,0-.4-.07-.54-.21-.14-.14-.21-.32-.21-.54v-.76c0-.22.07-.4.21-.54s.32-.21.54-.21h1.64v-11.1Z"/>
      <path class="st6" d="M217.88,580.25c.1.1.15.22.15.35v11.1h1.63v2.27h-3.4c-.13,0-.25-.05-.35-.15-.1-.1-.15-.22-.15-.35v-12.87c0-.13.05-.25.15-.35.1-.1.22-.15.35-.15h1.26c.13,0,.25.05.35.15Z"/>
      <path class="st6" d="M219.12,591.92c.14-.14.32-.21.54-.21h3.4l-1.48-2.57c-.1-.17-.17-.36-.21-.57-.04-.21-.06-.42-.06-.62,0-.29.04-.57.13-.85.08-.28.21-.52.38-.73.17-.21.38-.38.63-.52.25-.13.54-.2.88-.2h5.28c.33,0,.63.07.88.2.25.13.46.31.63.52.17.21.29.46.38.73s.13.56.13.85c0,.2-.02.4-.06.61s-.11.4-.21.58l-1.46,2.57h3.37v2.27h-12.58c-.22,0-.4-.07-.54-.21-.14-.14-.21-.32-.21-.54v-.76c0-.22.07-.4.21-.54ZM223.51,587.92l2.29,3.79h.28l2.34-3.79h-4.91Z"/>
      <path class="st6" d="M233.88,580.6c0-.13.05-.25.15-.35.1-.1.22-.15.35-.15h1.26c.13,0,.25.05.35.15.1.1.15.22.15.35v11.36c0,.55-.2,1.03-.59,1.43-.39.4-.87.59-1.42.59h-1.89c-.22,0-.4-.07-.54-.21-.14-.14-.21-.32-.21-.54v-.76c0-.22.07-.4.21-.54s.32-.21.54-.21h1.64v-11.1Z"/>
      <path class="st6" d="M241.52,580.25c.1.1.15.22.15.35v12.87c0,.13-.05.25-.15.35-.1.1-.22.15-.35.15h-1.26c-.13,0-.25-.05-.35-.15-.1-.1-.15-.22-.15-.35v-12.87c0-.13.05-.25.15-.35.1-.1.22-.15.35-.15h1.26c.13,0,.25.05.35.15Z"/>
      <path class="st6" d="M259.41,591.7v2.27h-1.64v1.77c0,.56-.2,1.03-.59,1.43-.39.4-.87.59-1.42.59h-3.27c-.62,0-1.21-.12-1.76-.35s-1.04-.56-1.45-.97c-.41-.41-.73-.9-.97-1.45-.23-.56-.35-1.14-.35-1.77v-3.28c0-.13.05-.25.15-.35.1-.1.22-.15.35-.15h1.26c.13,0,.25.05.35.15.1.1.15.22.15.35v3.28c0,.64.22,1.18.67,1.62.45.44.98.66,1.6.66h3.02v-14.89c0-.13.05-.25.15-.35.1-.1.22-.15.35-.15h1.26c.13,0,.25.05.35.15.1.1.15.22.15.35v11.1h1.64Z"/>
      <path class="st6" d="M258.87,591.92c.14-.14.32-.21.54-.21h2.64v-5.55c0-.13.05-.25.15-.35.1-.1.22-.15.35-.15h1.26c.13,0,.25.05.35.15.1.1.15.22.15.35v5.55h2.64v2.27h-7.55c-.22,0-.4-.07-.54-.21-.14-.14-.21-.32-.21-.54v-.76c0-.22.07-.4.21-.54ZM262.2,595.82c.27-.22.6-.33.98-.33s.71.11.98.33.4.49.4.81-.13.59-.4.81-.6.33-.98.33-.71-.11-.98-.33-.4-.49-.4-.81.13-.59.4-.81Z"/>
      <path class="st6" d="M266.41,593.76c-.14-.14-.21-.32-.21-.54v-.76c0-.22.07-.4.21-.54s.32-.21.54-.21h2.06c-.15-.27-.26-.56-.33-.87-.07-.31-.1-.64-.1-.97,0-.49.08-.98.24-1.49.16-.5.41-.96.75-1.36.34-.4.78-.73,1.32-.98.54-.25,1.17-.38,1.91-.38h1.81c.55,0,1.03.2,1.42.59.39.4.59.87.59,1.43v4.04h1.64v2.27h-11.32c-.22,0-.4-.07-.54-.21ZM270,581.94c.27-.22.59-.33.98-.33s.71.11.98.33c.27.22.4.49.4.81s-.13.59-.4.81c-.27.22-.59.33-.98.33s-.71-.11-.98-.33c-.27-.22-.4-.49-.4-.81s.13-.59.4-.81ZM274.38,587.92h-1.71c-.5,0-.93.18-1.28.54-.35.36-.53.81-.53,1.35,0,.49.17.93.5,1.31s.75.58,1.26.58h1.76v-3.79ZM273.27,581.94c.27-.22.6-.33.98-.33s.71.11.98.33.4.49.4.81-.13.59-.4.81-.6.33-.98.33-.71-.11-.98-.33-.4-.49-.4-.81.13-.59.4-.81Z"/>
      <path class="st6" d="M277.73,591.92c.14-.14.32-.21.54-.21h2.64v-5.55c0-.13.05-.25.15-.35.1-.1.22-.15.35-.15h1.26c.13,0,.25.05.35.15.1.1.15.22.15.35v5.55h2.64v2.27h-7.55c-.22,0-.4-.07-.54-.21-.14-.14-.21-.32-.21-.54v-.76c0-.22.07-.4.21-.54ZM278.8,581.94c.27-.22.6-.33.98-.33s.71.11.98.33.4.49.4.81-.13.59-.4.81-.6.33-.98.33-.71-.11-.98-.33-.4-.49-.4-.81.13-.59.4-.81ZM282.08,581.94c.27-.22.59-.33.98-.33s.71.11.98.33.4.49.4.81-.13.59-.4.81-.59.33-.98.33-.71-.11-.98-.33c-.27-.22-.4-.49-.4-.81s.13-.59.4-.81Z"/>
      <path class="st6" d="M285.28,593.76c-.14-.14-.21-.32-.21-.54v-.76c0-.22.07-.4.21-.54s.32-.21.54-.21h2.64v-5.55c0-.13.05-.25.15-.35.1-.1.22-.15.35-.15h1.26c.13,0,.25.05.35.15.1.1.15.22.15.35v5.55h2.77v-5.55c0-.13.05-.25.15-.35.1-.1.22-.15.35-.15h1.26c.13,0,.25.05.35.15.1.1.15.22.15.35v5.55h2.77v-5.55c0-.13.05-.25.15-.35.1-.1.22-.15.35-.15h1.26c.13,0,.25.05.35.15.1.1.15.22.15.35v5.55h2.64v2.27h-17.61c-.22,0-.4-.07-.54-.21Z"/>
      <path class="st6" d="M302.89,591.92c.14-.14.32-.21.54-.21h1.64v-1.82c0-.64.11-1.2.33-1.68.22-.48.51-.88.87-1.19.36-.31.78-.55,1.25-.71.47-.16.96-.24,1.46-.24s.99.08,1.45.23.88.38,1.25.69c.37.31.66.7.88,1.17.22.47.33,1.02.33,1.64v1.89h1.64v2.27h-2.59c-.37.4-.82.71-1.35.93-.53.22-1.07.33-1.62.33s-1.09-.1-1.6-.32c-.51-.21-.95-.53-1.32-.95h-2.59c-.22,0-.4-.07-.54-.21-.14-.14-.21-.32-.21-.54v-.76c0-.22.07-.4.21-.54ZM307.85,592.71c.34.17.72.25,1.12.25s.8-.08,1.13-.25c.33-.17.5-.42.5-.76v-2.27c0-.45-.17-.79-.5-1.01-.34-.22-.71-.33-1.13-.33s-.78.11-1.12.33-.52.56-.52,1.01v2.27c0,.34.17.59.52.76Z"/>
      <path class="st6" d="M316.14,580.6c0-.13.05-.25.15-.35.1-.1.22-.15.35-.15h1.26c.13,0,.25.05.35.15.1.1.15.22.15.35v11.36c0,.55-.2,1.03-.59,1.43-.39.4-.87.59-1.42.59h-1.89c-.22,0-.4-.07-.54-.21-.14-.14-.21-.32-.21-.54v-.76c0-.22.07-.4.21-.54s.32-.21.54-.21h1.64v-11.1Z"/>
      <path class="st6" d="M323.78,580.25c.1.1.15.22.15.35v12.87c0,.13-.05.25-.15.35-.1.1-.22.15-.35.15h-1.26c-.13,0-.25-.05-.35-.15-.1-.1-.15-.22-.15-.35v-12.87c0-.13.05-.25.15-.35.1-.1.22-.15.35-.15h1.26c.13,0,.25.05.35.15Z"/>
      <path class="st6" d="M335,591.7v-2.52c0-.4-.07-.75-.21-1.04s-.33-.52-.57-.69c-.23-.18-.51-.3-.83-.38-.32-.08-.65-.11-1.01-.11-.29,0-.58.03-.88.08-.3.05-.59.13-.86.23l-.55-2.12c.52-.17,1.01-.29,1.48-.38s.93-.13,1.38-.13c.62,0,1.19.09,1.71.26.52.18.97.45,1.36.82s.69.84.91,1.41c.22.57.33,1.25.33,2.04v2.52h1.64v2.27h-9.31v-2.27h5.41Z"/>
      <path class="st6" d="M338.37,591.91c.15-.13.33-.2.53-.2h2.44c-.39-.39-.67-.81-.84-1.26s-.26-.91-.26-1.36c0-.56.11-1.05.33-1.49.22-.44.51-.81.88-1.11s.8-.53,1.3-.69c.5-.16,1.03-.24,1.6-.24.54,0,1.09.07,1.66.21.57.14,1.15.36,1.74.64l-.86,1.97c-.34-.13-.71-.26-1.11-.38-.4-.12-.81-.18-1.23-.18-.2,0-.42.03-.67.09s-.47.15-.68.28-.39.29-.53.5-.21.48-.21.79c0,.24.05.48.15.73.1.25.25.49.45.72s.45.41.74.56c.29.14.62.21.99.21h3.37l-.45,2.27h-8.81c-.22,0-.4-.07-.54-.21-.14-.14-.21-.32-.21-.54v-.76c0-.24.08-.42.23-.56Z"/>
      <path class="st6" d="M353.22,580.25c.1.1.15.22.15.35v12.87c0,.13-.05.25-.15.35-.1.1-.22.15-.35.15h-1.26c-.13,0-.25-.05-.35-.15-.1-.1-.15-.22-.15-.35v-12.87c0-.13.05-.25.15-.35.1-.1.22-.15.35-.15h1.26c.13,0,.25.05.35.15Z"/>
      <path class="st6" d="M356.96,588.02c.22-.54.51-.98.88-1.34.37-.35.8-.61,1.28-.78.49-.17,1.01-.25,1.56-.25.64,0,1.27.1,1.91.32.64.21,1.25.53,1.84.95v4.79h1.64v2.27h-1.64c0,.76-.09,1.41-.26,1.94-.18.54-.42.98-.74,1.33-.32.34-.7.6-1.13.76-.44.16-.91.24-1.43.24-.59,0-1.18-.09-1.79-.28-.6-.19-1.25-.45-1.94-.78l.73-1.77c.4.19.83.35,1.27.48.45.13.88.2,1.3.2.5,0,.92-.15,1.25-.44.33-.29.49-.85.49-1.68h-3.27c-.64,0-1.17-.22-1.61-.66-.44-.44-.65-.98-.65-1.62v-1.77c0-.74.11-1.38.33-1.92ZM362.17,588.17c-.44-.17-.91-.25-1.43-.25-.49,0-.92.16-1.28.48-.37.32-.55.83-.55,1.54v1.77h3.27v-3.53Z"/>
      <path class="st6" d="M365.53,591.92c.14-.14.32-.21.54-.21h2.06c-.15-.27-.26-.56-.33-.87-.07-.31-.1-.64-.1-.97,0-.49.08-.98.24-1.49.16-.5.41-.96.75-1.36.34-.4.78-.73,1.32-.98.54-.25,1.17-.38,1.91-.38h1.81c.55,0,1.03.2,1.42.59.39.4.59.87.59,1.43v5.8c0,.13-.05.25-.15.35-.1.1-.22.15-.35.15h-9.18c-.22,0-.4-.07-.54-.21-.14-.14-.21-.32-.21-.54v-.76c0-.22.07-.4.21-.54ZM369.11,581.94c.27-.22.59-.33.98-.33s.71.11.98.33c.27.22.4.49.4.81s-.13.59-.4.81c-.27.22-.59.33-.98.33s-.71-.11-.98-.33c-.27-.22-.4-.49-.4-.81s.13-.59.4-.81ZM370.5,588.46c-.35.36-.53.81-.53,1.35,0,.49.17.93.5,1.31s.77.58,1.31.58h1.71v-3.79h-1.71c-.5,0-.93.18-1.28.54ZM372.38,581.94c.27-.22.6-.33.98-.33s.71.11.98.33.4.49.4.81-.13.59-.4.81-.6.33-.98.33-.71-.11-.98-.33-.4-.49-.4-.81.13-.59.4-.81Z"/>
      <path class="st6" d="M389.59,586.15c0-.13.05-.25.15-.35.1-.1.22-.15.35-.15h1.26c.13,0,.25.05.35.15.1.1.15.22.15.35v5.55h2.77v-5.55c0-.13.05-.25.15-.35.1-.1.22-.15.35-.15h1.26c.13,0,.25.05.35.15.1.1.15.22.15.35v5.55h2.77v-5.55c0-.13.05-.25.15-.35.1-.1.22-.15.35-.15h1.26c.13,0,.25.05.35.15.1.1.15.22.15.35v5.8c0,.55-.2,1.03-.59,1.43s-.87.59-1.42.59h-8.05v1.51c0,.55-.2,1.03-.59,1.43s-.87.59-1.42.59h-3.27c-.62,0-1.21-.12-1.76-.35-.55-.24-1.04-.56-1.45-.97-.41-.41-.73-.9-.97-1.45-.23-.56-.35-1.14-.35-1.77v-3.03c0-.13.05-.25.15-.35.1-.1.22-.15.35-.15h1.26c.13,0,.25.05.35.15.1.1.15.22.15.35v3.03c0,.62.22,1.16.67,1.6.45.45.98.67,1.6.67h3.02v-9.08Z"/>
      <path class="st6" d="M405.34,585.8c.1-.1.22-.15.35-.15h1.26c.13,0,.25.05.35.15.1.1.15.22.15.35v7.82c0,.76-.09,1.4-.26,1.93-.18.53-.42.97-.74,1.31-.32.34-.7.6-1.13.76-.44.16-.91.24-1.43.24-.59,0-1.2-.09-1.85-.26-.65-.18-1.31-.43-2-.77l.73-1.79c.39.19.83.35,1.32.5s.98.23,1.45.23c.23,0,.45-.03.65-.1.2-.07.38-.18.53-.34.15-.16.27-.38.35-.66.08-.28.13-.63.13-1.05v-7.82c0-.13.05-.25.15-.35Z"/>
      <path class="st6" d="M412.84,580.25c.1.1.15.22.15.35v12.87c0,.13-.05.25-.15.35-.1.1-.22.15-.35.15h-1.26c-.13,0-.25-.05-.35-.15-.1-.1-.15-.22-.15-.35v-12.87c0-.13.05-.25.15-.35.1-.1.22-.15.35-.15h1.26c.13,0,.25.05.35.15Z"/>
      <path class="st6" d="M421.04,591.7v-2.52c0-.4-.07-.75-.21-1.04s-.33-.52-.57-.69c-.23-.18-.51-.3-.83-.38-.32-.08-.65-.11-1.01-.11-.29,0-.58.03-.88.08-.3.05-.59.13-.86.23l-.55-2.12c.52-.17,1.01-.29,1.48-.38s.93-.13,1.38-.13c.62,0,1.19.09,1.71.26.52.18.97.45,1.36.82s.69.84.91,1.41c.22.57.33,1.25.33,2.04v2.52h1.64v2.27h-9.31v-2.27h5.41Z"/>
      <path class="st6" d="M424.39,593.76c-.14-.14-.21-.32-.21-.54v-.76c0-.22.07-.4.21-.54s.32-.21.54-.21h1.64v-2.47c0-.5.11-.96.34-1.35.23-.4.53-.73.91-1,.38-.27.81-.47,1.31-.61s1.01-.2,1.55-.2c.65,0,1.3.11,1.95.32.65.21,1.23.53,1.75.97v4.29c0,.55-.1,1.04-.31,1.46-.21.42-.49.77-.83,1.05s-.74.48-1.2.62-.93.2-1.43.2c-.64,0-1.19-.09-1.65-.26-.46-.18-.96-.42-1.5-.75h-2.52c-.22,0-.4-.07-.54-.21ZM429.69,592.6c.3.08.6.11.91.11.4,0,.75-.08,1.06-.23.3-.15.45-.39.45-.71v-3.1c-.15-.08-.36-.16-.63-.23-.27-.07-.55-.1-.86-.1-.44,0-.84.09-1.22.28-.38.19-.57.51-.57.98v2.62c.27.17.55.29.86.37Z"/>
    </g>
  </g>
</svg>